<?xml version="1.0" standalone="no"?>
<!DOCTYPE svg PUBLIC "-//W3C//DTD SVG 20010904//EN"
 "http://www.w3.org/TR/2001/REC-SVG-20010904/DTD/svg10.dtd">
<svg version="1.0" xmlns="http://www.w3.org/2000/svg"
 width="2364.000000pt" height="2250.000000pt" viewBox="0 0 2364.000000 2250.000000"
 preserveAspectRatio="xMidYMid meet">

<g transform="translate(0.000000,2250.000000) scale(0.100000,-0.100000)"
fill="#000000" stroke="none">
<path d="M10342 20189 c-366 -32 -674 -165 -883 -380 l-65 -68 -106 34 c-215
68 -396 95 -634 95 -198 0 -358 -24 -526 -80 -281 -93 -556 -265 -774 -484
-124 -125 -208 -244 -264 -374 l-38 -87 -119 -12 c-671 -67 -1239 -417 -1480
-913 -58 -119 -109 -271 -133 -397 -11 -59 -22 -108 -23 -109 -1 0 -43 -22
-94 -47 -377 -189 -715 -532 -911 -923 -88 -177 -153 -386 -188 -609 -24 -157
-29 -481 -10 -662 9 -84 19 -158 22 -166 3 -9 -17 -27 -61 -52 -216 -127 -393
-331 -520 -598 -168 -356 -217 -736 -135 -1051 27 -100 79 -222 135 -312 l47
-74 -67 -72 c-264 -285 -389 -665 -330 -1004 30 -168 113 -368 219 -522 66
-97 71 -69 -52 -253 -161 -240 -300 -557 -353 -809 -28 -129 -33 -410 -10
-525 50 -251 178 -482 370 -668 l81 -79 -26 -121 c-31 -150 -43 -409 -25 -536
27 -185 87 -344 185 -496 70 -108 229 -269 336 -339 41 -27 76 -50 78 -52 2
-1 -4 -57 -12 -124 -32 -246 -16 -531 40 -728 102 -359 395 -657 827 -843
l112 -49 1 -192 c1 -207 11 -306 49 -454 87 -342 273 -579 570 -724 140 -69
252 -103 414 -127 l116 -17 1 -155 c5 -659 259 -1122 749 -1362 265 -129 542
-185 891 -177 l162 3 37 -95 c140 -356 423 -596 785 -664 153 -29 405 -17 553
28 l46 14 42 -62 c64 -90 202 -224 300 -289 206 -137 427 -203 710 -214 274
-11 485 42 669 167 l63 42 91 -45 c294 -146 558 -151 830 -16 277 138 518 406
592 659 l22 75 118 26 c149 34 225 60 339 116 196 97 285 199 347 393 20 66
23 95 23 236 l-1 160 69 28 c238 98 437 334 508 601 14 56 21 114 22 192 1 74
6 113 13 113 6 0 37 -9 70 -20 79 -28 268 -76 379 -96 140 -25 411 -30 536 -9
282 47 512 171 707 381 85 92 88 94 132 94 25 0 76 7 115 15 384 81 763 357
1017 740 79 119 185 335 228 464 31 91 42 111 98 175 324 366 468 935 351
1383 -11 41 -47 138 -81 216 -109 254 -111 270 -79 529 40 312 71 917 71 1388
0 434 -24 1050 -67 1707 l-17 261 67 116 c328 565 477 999 533 1544 9 86 19
160 22 163 4 4 84 39 177 79 709 301 1245 649 1689 1095 168 169 193 202 202
266 9 63 -18 119 -96 203 -165 176 -410 306 -730 386 -256 64 -480 89 -871 97
l-296 6 -6 141 c-8 212 -56 362 -168 528 -52 76 -175 200 -246 248 l-52 35 -1
95 c0 199 -37 375 -106 513 -74 147 -271 306 -537 432 l-126 60 0 118 c-1 197
-44 345 -142 492 -51 76 -146 171 -224 225 -111 76 -275 130 -399 130 -39 0
-76 4 -82 8 -6 4 -23 33 -37 66 -130 286 -409 502 -722 558 -79 14 -293 17
-371 5 l-52 -7 -28 47 c-39 67 -183 213 -267 271 -279 192 -678 293 -1039 262
-110 -9 -232 -30 -384 -67 -14 -3 -23 2 -31 19 -19 43 -130 182 -204 257 -147
148 -324 257 -519 319 -144 45 -227 57 -415 57 -232 0 -367 -29 -553 -121
l-87 -42 -53 46 c-155 136 -273 211 -427 271 -183 72 -401 100 -623 80z m379
-378 c206 -53 374 -162 521 -338 74 -89 111 -113 173 -113 50 0 91 20 154 73
65 56 169 108 276 139 70 20 101 23 250 22 154 0 178 -3 256 -27 48 -14 113
-38 145 -53 l59 -28 -85 -8 c-217 -22 -362 -60 -525 -138 -185 -89 -359 -218
-476 -353 -34 -39 -68 -78 -74 -85 -10 -11 -23 -11 -73 2 -156 41 -415 37
-559 -8 -167 -53 -324 -184 -441 -370 l-31 -48 -163 -3 c-177 -3 -287 -20
-396 -61 -139 -52 -260 -148 -342 -271 l-51 -77 -162 -1 c-140 -1 -171 -4
-232 -24 -311 -103 -525 -375 -562 -716 l-8 -70 -70 -8 c-189 -20 -361 -97
-492 -220 -168 -159 -260 -352 -293 -619 l-12 -96 -35 -7 c-84 -15 -214 -59
-293 -98 l-85 -41 -285 3 c-157 1 -343 -2 -415 -8 -555 -47 -1035 -195 -1397
-429 -154 -100 -188 -150 -175 -259 11 -99 222 -460 394 -673 91 -113 246
-274 359 -372 l92 -79 -34 -52 c-90 -135 -147 -306 -159 -478 -13 -169 28
-390 99 -545 l35 -74 -57 -29 c-304 -156 -430 -561 -276 -886 34 -72 128 -173
195 -209 l52 -29 -27 44 c-89 144 -114 291 -81 466 35 186 169 344 340 403
l57 20 74 -35 c58 -28 228 -85 251 -85 3 0 -21 28 -52 63 -101 110 -174 251
-230 437 -41 136 -47 327 -16 478 18 87 68 205 110 261 l19 25 93 -61 c279
-179 544 -298 877 -392 388 -110 747 -142 1220 -110 90 6 165 9 168 6 3 -2 -9
-29 -27 -58 -120 -202 -172 -436 -149 -666 18 -186 85 -419 162 -563 l29 -55
-5 40 c-14 110 -18 466 -7 550 30 226 99 389 228 545 112 134 184 196 306 263
129 71 220 104 352 127 l100 18 -79 37 c-80 37 -284 95 -336 95 -35 0 -40 13
-40 108 1 161 81 365 240 605 92 140 328 379 457 465 51 33 119 71 153 83 33
12 60 24 60 27 0 3 -53 2 -117 -1 -133 -7 -287 -42 -448 -102 -110 -41 -102
-44 -136 45 -40 107 -51 166 -56 305 -5 136 -4 143 26 236 39 120 106 225 203
321 70 68 221 175 326 233 29 15 50 30 48 32 -8 9 -174 -27 -256 -56 -296 -99
-497 -277 -581 -513 l-31 -86 -89 58 c-173 114 -446 238 -694 316 -66 20 -124
40 -128 44 -10 9 214 96 300 116 37 9 106 19 153 23 l85 7 -62 32 c-82 42
-188 77 -298 97 -49 9 -101 19 -114 21 -23 5 -24 7 -17 80 23 251 170 431 396
485 78 19 213 14 312 -11 81 -21 242 -81 362 -134 51 -23 58 -25 52 -9 -13 34
-111 184 -188 288 -66 89 -77 110 -83 157 -20 166 69 372 202 468 80 57 143
73 262 68 111 -6 217 -35 470 -128 90 -33 166 -59 168 -56 2 2 -41 77 -97 167
l-101 163 18 40 c26 58 109 138 174 169 31 15 96 33 144 42 94 16 251 20 259
7 3 -5 17 -62 31 -128 14 -65 37 -168 52 -228 l27 -108 37 113 c160 493 330
760 509 798 102 22 352 11 399 -18 8 -5 34 -99 62 -222 70 -311 58 -295 107
-147 63 193 139 376 188 455 136 219 384 393 661 464 118 30 303 31 413 1 90
-24 190 -68 190 -82 0 -6 -13 -37 -30 -69 -42 -83 -97 -220 -136 -334 l-33
-98 77 72 c89 83 327 263 406 309 187 106 551 155 812 107 285 -52 559 -205
640 -359 13 -25 11 -30 -51 -121 -36 -53 -92 -147 -126 -211 l-61 -116 104 54
c396 209 745 259 983 142 132 -65 277 -227 320 -356 l17 -51 -50 -122 c-50
-121 -92 -247 -92 -273 0 -7 28 8 64 36 73 54 210 132 275 155 169 59 329 29
455 -86 97 -89 137 -169 157 -315 17 -128 18 -127 -132 -142 -152 -16 -455
-69 -446 -78 2 -2 60 -19 128 -38 325 -90 793 -290 993 -425 165 -112 210
-198 223 -425 l6 -102 -179 -17 c-159 -14 -412 -52 -422 -62 -2 -2 16 -9 39
-15 188 -48 572 -190 696 -258 142 -78 276 -245 315 -392 34 -129 19 -449 -32
-682 -50 -229 -200 -461 -350 -542 -69 -37 -149 -39 -236 -4 l-58 23 -12 97
c-12 95 -46 275 -66 353 l-10 39 -34 -89 c-19 -50 -64 -149 -100 -222 -156
-314 -369 -450 -569 -364 -53 24 -98 76 -91 107 17 66 25 275 16 378 -6 60
-13 112 -15 114 -2 2 -14 -16 -26 -40 -66 -130 -194 -283 -309 -370 -126 -96
-293 -158 -384 -144 -52 9 -118 42 -150 75 l-25 26 34 90 c35 96 80 280 91
380 l7 60 -43 -55 c-165 -208 -395 -373 -600 -429 -113 -32 -202 -28 -277 9
-105 52 -182 155 -214 283 l-12 48 150 152 c153 155 192 204 156 193 -153 -48
-354 -78 -517 -77 -143 1 -227 17 -314 58 -101 48 -228 197 -268 316 -32 96
-24 161 45 362 65 188 124 385 119 390 -2 2 -28 -17 -58 -42 -200 -166 -451
-333 -549 -364 -93 -30 -223 -30 -310 0 -119 41 -210 117 -290 241 -70 108
-81 158 -81 364 0 212 -17 305 -78 420 l-37 71 -7 -61 c-13 -120 -51 -215
-133 -329 -65 -90 -122 -140 -205 -179 -213 -101 -461 -103 -695 -5 l-73 30
-67 122 c-37 67 -95 165 -129 217 -66 100 -186 254 -192 247 -3 -2 5 -42 16
-89 55 -232 73 -527 45 -733 -41 -302 -129 -559 -250 -730 -139 -196 -435
-383 -750 -475 -33 -10 -76 -25 -95 -34 -19 -9 -114 -39 -210 -67 -96 -28
-178 -54 -182 -58 -4 -4 74 -40 173 -81 l180 -75 56 -90 c112 -180 209 -418
238 -583 40 -231 -5 -386 -159 -537 -106 -106 -200 -155 -346 -184 -95 -18
-259 -37 -380 -44 l-45 -2 143 -73 c78 -40 186 -90 240 -112 183 -73 271 -129
374 -238 150 -158 218 -317 218 -512 0 -117 -19 -198 -70 -307 -53 -114 -114
-197 -207 -282 -63 -58 -103 -84 -208 -135 -71 -35 -141 -68 -154 -73 -46 -18
160 -54 364 -63 99 -5 191 -11 205 -15 258 -70 433 -190 494 -339 40 -98 38
-240 -6 -380 -21 -67 -29 -77 -135 -185 l-113 -114 97 7 c54 4 172 18 262 32
405 60 609 4 747 -203 69 -105 111 -283 97 -417 l-6 -56 -81 -25 c-92 -27
-184 -45 -233 -45 -19 0 -32 -4 -28 -9 16 -26 164 -112 299 -173 126 -57 159
-76 196 -116 77 -82 130 -219 130 -339 0 -66 -30 -164 -65 -209 -38 -49 -197
-152 -325 -209 -58 -26 -123 -56 -145 -68 l-40 -20 185 -38 c102 -22 194 -43
206 -48 11 -5 39 -41 62 -79 133 -224 178 -492 110 -660 -96 -236 -356 -488
-673 -652 -75 -40 -89 -50 -73 -56 45 -14 353 -5 483 15 72 11 133 16 136 13
3 -4 39 -81 80 -172 102 -228 359 -742 467 -935 203 -366 367 -607 517 -764
228 -238 564 -497 839 -647 101 -55 105 -58 129 -113 88 -199 49 -422 -103
-584 -70 -75 -144 -121 -229 -143 -97 -24 -320 -7 -501 39 -74 19 -144 38
-154 43 -19 7 -19 6 2 -23 34 -47 204 -206 305 -284 111 -86 118 -103 120
-284 2 -108 -1 -125 -22 -168 -13 -26 -37 -59 -55 -74 -82 -69 -295 -143 -467
-161 -157 -16 -402 46 -563 143 l-58 36 37 -68 c50 -91 145 -211 240 -302 l76
-75 -11 -44 c-24 -97 -105 -219 -202 -307 -194 -174 -366 -238 -542 -202 -78
16 -182 59 -235 96 -26 19 -27 24 -39 163 -7 79 -21 193 -32 253 -11 61 -20
112 -20 115 0 3 -24 -50 -54 -116 -101 -233 -217 -399 -326 -472 -34 -23 -99
-54 -143 -69 -77 -26 -93 -27 -262 -28 -157 0 -191 3 -270 24 -110 28 -236 86
-320 145 -74 54 -173 159 -205 219 l-23 43 103 182 c56 101 100 185 98 187 -2
3 -98 -40 -212 -95 -114 -55 -222 -104 -239 -109 -18 -5 -62 -21 -98 -35 -152
-57 -362 -74 -504 -41 -226 52 -420 233 -498 466 -21 62 -60 282 -107 607 -21
145 -40 265 -42 267 -2 3 -47 -125 -99 -284 -92 -282 -95 -289 -123 -295 -58
-12 -360 -6 -465 9 -551 80 -865 378 -946 900 -42 273 -29 468 55 805 32 129
57 237 55 239 -2 2 -71 -56 -152 -129 l-148 -132 -145 5 c-222 7 -390 61 -537
170 -205 152 -321 475 -299 832 11 173 -9 148 207 255 104 52 189 97 189 100
0 4 -102 21 -227 40 -174 25 -256 42 -348 72 -359 118 -640 337 -745 583 -57
132 -83 342 -69 545 13 194 44 352 133 679 31 113 54 207 51 209 -2 3 -68 -53
-147 -124 -79 -70 -153 -136 -165 -147 -21 -19 -22 -18 -79 18 -123 79 -235
209 -298 347 -53 115 -68 186 -73 353 -8 234 26 396 149 705 72 181 206 467
259 553 17 27 28 51 26 53 -9 9 -215 -172 -373 -328 l-171 -169 -67 72 c-174
188 -246 388 -233 652 15 309 165 658 434 1009 89 116 151 175 303 288 l113
85 -201 5 -202 5 -44 60 c-250 333 -271 669 -63 989 135 206 391 426 747 639
l115 69 -110 -6 c-135 -8 -324 -31 -435 -52 -97 -18 -98 -17 -156 78 -118 194
-145 460 -76 729 65 246 164 437 301 583 57 60 184 156 207 156 6 0 45 -34 85
-76 128 -133 274 -236 379 -269 21 -7 19 -2 -17 39 -154 175 -273 660 -273
1115 0 473 120 818 402 1157 144 172 343 331 546 433 151 76 634 244 814 283
60 13 108 26 108 29 0 15 -331 62 -528 75 l-113 7 6 31 c25 119 103 299 178
411 97 144 291 306 480 402 389 196 929 247 1390 132 87 -22 163 -39 167 -37
19 7 -298 258 -402 319 -40 23 -75 43 -77 45 -8 7 24 69 72 143 114 175 331
352 587 481 293 148 654 174 1032 75 54 -13 123 -35 155 -48 l57 -23 27 -102
c27 -104 90 -289 113 -330 11 -21 14 -17 30 60 26 124 110 367 152 439 127
216 379 345 749 383 83 8 261 -4 336 -23z m-3621 -4016 c341 -38 680 -121 970
-238 265 -106 438 -209 582 -346 79 -75 82 -79 98 -149 9 -40 15 -72 12 -72
-2 0 -50 28 -106 61 -428 260 -990 469 -1431 533 -92 13 -302 30 -245 20 252
-46 431 -97 641 -179 361 -143 617 -290 976 -559 l161 -121 -29 -50 c-17 -27
-51 -91 -76 -141 l-46 -92 -50 54 c-243 266 -783 532 -1380 679 -217 53 -371
80 -772 135 -331 45 -473 68 -645 106 -126 29 -340 91 -353 103 -9 9 152 78
286 122 192 63 461 117 682 138 152 14 588 12 725 -4z m5218 -284 c132 -173
307 -284 519 -327 76 -16 290 -15 369 1 30 7 31 7 49 -60 39 -147 130 -293
261 -420 130 -127 224 -170 498 -231 38 -9 39 -10 57 -79 10 -38 39 -112 65
-164 81 -164 243 -305 419 -363 60 -20 90 -23 205 -22 138 0 190 9 327 56 l62
21 38 -34 c162 -146 355 -202 561 -163 24 4 31 -1 64 -53 106 -166 196 -470
233 -789 8 -71 15 -159 15 -196 0 -38 4 -68 8 -68 5 0 27 53 50 118 111 307
172 598 173 821 0 66 2 121 4 121 2 0 32 -7 66 -16 85 -22 236 -22 319 0 94
24 194 77 289 152 l83 66 48 -21 c119 -51 312 -67 421 -35 62 18 160 66 204
98 54 40 55 40 38 -9 -57 -169 -211 -252 -468 -256 l-70 -1 70 -33 c102 -48
201 -70 320 -68 58 1 120 7 148 16 l47 15 0 -212 c0 -616 -69 -981 -268 -1426
l-56 -125 -7 40 c-4 22 -12 117 -19 210 -7 94 -16 178 -20 188 -3 11 -25 -91
-49 -229 -23 -137 -44 -250 -46 -252 -5 -5 -6 -2 -176 431 -79 202 -145 359
-147 350 -1 -10 33 -306 77 -658 87 -696 91 -737 121 -1240 35 -609 43 -872
43 -1415 0 -675 -25 -1204 -60 -1242 -30 -33 -175 -100 -271 -124 -251 -64
-567 -49 -1005 47 -240 53 -397 108 -733 259 -460 207 -688 272 -959 272 -227
1 -421 -48 -645 -162 -115 -59 -316 -186 -340 -215 -6 -8 39 9 102 37 315 141
610 201 864 177 249 -23 395 -75 859 -304 382 -189 533 -248 810 -316 202 -49
369 -70 605 -76 291 -7 456 19 644 102 46 20 56 22 56 9 0 -39 -111 -696 -163
-961 -25 -129 -30 -170 -19 -161 28 24 184 239 252 349 39 63 75 118 79 122
12 12 38 -71 52 -163 14 -92 6 -287 -15 -390 -85 -396 -309 -688 -613 -800
-120 -43 -229 -61 -383 -61 -316 0 -590 98 -807 288 -143 125 -194 230 -247
519 -47 247 -77 358 -130 470 -54 114 -92 171 -170 253 -147 153 -322 253
-580 327 -65 19 -121 33 -123 31 -2 -2 49 -44 114 -93 149 -111 287 -244 352
-339 28 -40 51 -76 51 -78 0 -3 -25 -31 -56 -61 -191 -191 -174 -525 41 -811
67 -90 168 -198 248 -267 39 -33 89 -86 112 -117 62 -83 208 -219 305 -283
275 -181 639 -283 948 -264 101 7 251 29 287 42 17 7 17 5 -1 -25 -32 -56
-167 -213 -235 -275 -35 -32 -95 -81 -134 -108 -75 -54 -231 -136 -240 -126
-3 3 3 25 13 49 27 62 67 181 91 267 l20 74 -77 -74 c-134 -127 -289 -256
-436 -361 l-79 -57 -129 0 c-654 0 -1262 294 -1571 760 -138 210 -222 391
-406 882 -196 523 -267 662 -421 820 l-72 73 43 -64 c96 -147 168 -325 228
-571 16 -69 55 -226 85 -350 176 -726 376 -1120 709 -1397 221 -184 484 -316
780 -392 121 -31 299 -61 375 -62 86 -1 91 -11 26 -46 -254 -134 -613 -133
-1035 3 -298 96 -545 218 -806 400 -205 143 -460 370 -574 512 -119 148 -293
429 -449 725 l-69 132 -11 129 c-32 396 21 783 164 1207 48 143 45 143 -42 4
-123 -197 -259 -492 -335 -724 l-30 -94 -15 29 c-24 45 -149 319 -156 342 -6
16 4 38 37 84 51 72 111 188 139 268 87 252 53 551 -97 856 l-50 101 34 44
c44 57 96 167 118 249 25 96 23 278 -6 395 -30 125 -96 252 -181 353 l-71 82
-3 183 c-2 149 -7 196 -24 261 -28 102 -78 216 -127 291 -55 84 -179 204 -261
253 -126 75 -320 132 -450 132 l-54 0 0 103 c0 316 -171 568 -497 731 -50 25
-96 46 -102 46 -17 0 -14 10 29 95 81 161 120 322 120 495 0 283 -104 532
-316 759 l-69 74 63 61 c166 158 256 336 283 559 28 229 -46 538 -205 856 -26
51 -46 94 -44 95 2 1 28 13 58 26 289 121 547 308 693 504 117 158 233 435
288 686 13 58 24 107 26 109 1 2 53 -9 115 -25 105 -27 126 -29 298 -28 169 0
193 2 280 26 52 15 122 38 155 51 l60 25 43 -82 c24 -44 69 -114 100 -155z
m-4873 -704 c275 -94 514 -218 663 -345 66 -55 144 -165 172 -241 26 -69 21
-117 -20 -183 -33 -52 -39 -55 -200 -85 -136 -25 -492 -25 -645 0 -417 69
-808 210 -1147 414 -190 114 -430 295 -598 452 -46 43 -36 38 55 -31 511 -382
972 -578 1560 -664 126 -19 438 -23 541 -7 l51 8 -323 180 c-177 99 -319 181
-315 183 5 1 173 -33 374 -78 201 -44 368 -80 372 -80 3 0 -9 18 -26 40 -98
122 -416 328 -717 465 -67 30 -126 55 -131 55 -5 0 -12 4 -16 9 -7 12 219 -48
350 -92z m11515 -52 c184 -22 355 -57 489 -101 116 -38 296 -122 296 -139 0
-12 -311 -113 -505 -164 -288 -75 -443 -97 -855 -121 -99 -6 -190 -13 -201
-16 -20 -5 -22 0 -33 73 -21 139 -24 206 -9 224 24 30 351 82 598 96 63 3 123
9 133 12 32 12 -345 65 -605 86 l-78 7 6 26 c4 15 9 31 12 36 8 14 600 0 752
-19z"/>
<path d="M14156 17520 c-92 -15 -202 -48 -264 -79 l-57 -29 60 -7 c430 -48
579 -85 755 -189 178 -105 336 -286 397 -455 14 -42 37 -103 49 -136 l22 -60
9 40 c4 22 8 96 8 165 -1 113 -4 133 -32 213 -40 113 -83 184 -163 270 -161
173 -363 262 -615 272 -60 2 -137 0 -169 -5z"/>
<path d="M16101 15870 c-64 -14 -160 -62 -206 -104 l-40 -36 70 6 c109 9 235
-10 308 -46 185 -91 291 -239 412 -574 25 -71 50 -136 54 -144 15 -26 51 155
51 252 0 116 -22 212 -75 321 -72 150 -178 250 -322 302 -73 26 -186 37 -252
23z"/>
<path d="M6374 10897 c-168 -125 -281 -307 -326 -527 -44 -212 6 -437 141
-634 l32 -46 -59 -74 c-169 -212 -262 -447 -262 -660 0 -120 18 -200 65 -303
91 -197 292 -388 502 -477 l58 -25 -5 -73 c-3 -40 -5 -163 -4 -273 1 -188 3
-207 31 -315 37 -139 72 -212 148 -303 115 -139 284 -247 453 -290 l87 -23 6
-89 c39 -539 342 -948 787 -1061 96 -24 229 -31 297 -14 30 7 30 7 5 12 -14 3
-54 11 -89 18 -175 32 -358 153 -517 342 -87 104 -101 130 -143 260 -42 133
-61 259 -61 408 0 210 14 263 219 844 12 33 21 62 21 65 -1 3 -20 -15 -43 -41
-23 -25 -121 -133 -216 -238 l-175 -192 -50 6 c-84 10 -152 50 -252 150 -98
99 -120 138 -145 267 -22 108 -15 343 14 494 37 190 90 400 147 580 28 87 50
161 50 163 0 7 -75 -61 -243 -220 l-158 -150 -47 12 c-155 39 -353 216 -414
370 -34 87 -30 218 10 337 17 51 45 119 61 151 42 83 295 467 383 579 26 35
48 65 48 68 0 7 -164 -76 -254 -129 l-76 -45 -35 37 c-52 54 -162 221 -180
271 -20 59 -20 257 1 359 30 148 108 298 207 400 28 28 49 52 45 52 -3 0 -32
-20 -64 -43z"/>
<path d="M9005 10386 c-127 -40 -222 -147 -260 -291 -19 -74 -19 -223 0 -295
36 -135 137 -272 258 -348 l62 -39 -6 -89 c-16 -264 43 -496 165 -646 89 -109
271 -218 421 -254 147 -34 312 -14 415 49 l35 22 -63 7 c-177 20 -323 98 -473
255 -114 120 -143 209 -143 448 1 186 2 189 66 211 73 23 278 105 368 147 l75
35 -45 5 c-354 46 -638 103 -726 147 -116 57 -177 141 -204 278 -24 118 14
242 101 330 39 39 40 42 18 41 -13 0 -42 -6 -64 -13z"/>
<path d="M11546 4588 c-77 -219 -238 -573 -304 -667 -167 -238 -384 -330 -627
-267 -97 25 -240 96 -300 149 -27 24 -67 69 -88 100 l-39 56 31 80 c33 87 104
346 99 362 -2 6 -30 -20 -62 -56 -74 -84 -234 -227 -306 -273 -189 -121 -362
-144 -516 -67 -151 74 -248 209 -288 399 l-13 61 -13 -60 c-27 -128 8 -306 83
-419 84 -127 223 -220 377 -252 84 -18 231 -15 314 7 45 11 51 11 60 -5 69
-116 180 -235 281 -301 172 -113 420 -176 605 -155 252 29 477 188 626 440 24
40 45 78 47 83 1 4 43 -4 92 -19 77 -23 108 -27 215 -28 155 0 211 18 299 99
83 78 144 205 166 350 l6 40 -22 -35 c-134 -216 -210 -280 -335 -280 -97 0
-234 47 -311 106 l-33 25 0 183 c0 203 -10 396 -20 396 -3 0 -14 -24 -24 -52z"/>
<path d="M12120 15428 c-188 -135 -409 -181 -610 -128 -90 24 -122 25 -159 5
-34 -17 -46 -45 -61 -149 -42 -282 -214 -542 -560 -850 l-75 -66 45 13 c76 23
195 76 266 119 267 160 458 402 524 666 l11 42 93 0 c241 0 466 127 556 314
17 37 30 69 28 70 -1 2 -28 -15 -58 -36z"/>
<path d="M12201 13073 c8 -10 65 -74 128 -143 62 -69 151 -171 196 -228 100
-125 254 -348 234 -339 -8 3 -52 22 -99 42 -176 76 -440 124 -610 111 -92 -8
-195 -27 -281 -52 -50 -15 -52 -17 -34 -31 11 -8 144 -77 295 -154 151 -77
283 -145 292 -152 16 -13 15 -18 -8 -75 -144 -356 224 -707 574 -547 31 14 71
37 89 51 18 14 37 22 43 19 21 -13 185 -242 281 -391 76 -119 114 -191 156
-295 30 -77 59 -139 63 -139 19 0 35 174 35 380 -1 178 -5 235 -23 331 -70
372 -226 734 -440 1019 -82 110 -253 282 -362 364 -146 110 -367 214 -509 240
-31 5 -32 5 -20 -11z"/>
<path d="M13934 11700 c8 -33 52 -304 65 -400 6 -41 20 -185 31 -320 57 -678
125 -999 277 -1305 48 -96 141 -241 173 -270 26 -24 27 -34 -14 251 -19 132
-51 392 -71 579 -65 619 -113 859 -221 1117 -48 112 -159 292 -214 343 l-32
30 6 -25z"/>
<path d="M16836 11300 c-31 -177 -46 -521 -53 -1195 -8 -786 9 -1128 73 -1545
14 -91 27 -166 29 -168 1 -2 10 37 19 85 103 566 137 1352 85 1988 -23 282
-85 670 -133 825 l-14 45 -6 -35z"/>
</g>
</svg>
